<svg width="64" height="64" viewBox="0 0 64 64" fill="none" xmlns="http://www.w3.org/2000/svg">
<path fill-rule="evenodd" clip-rule="evenodd" d="M29 21.3333H10C9.05719 21.3333 8.58579 21.3333 8.29289 21.6261C8 21.919 8 22.3904 8 23.3333V32.6666C8 33.5672 8 34.0376 8.25529 34.3333H29V21.3333ZM16 40.3333V53.9999C16 54.9427 16 55.4141 16.2929 55.707C16.5858 55.9999 17.0572 55.9999 18 55.9999H29V40.3333H16ZM35 55.9999H46C46.9428 55.9999 47.4142 55.9999 47.7071 55.707C48 55.4141 48 54.9427 48 53.9999V40.3333H35V55.9999ZM55.7447 34.3333C56 34.0376 56 33.5672 56 32.6666V23.3333C56 22.3904 56 21.919 55.7071 21.6261C55.4142 21.3333 54.9428 21.3333 54 21.3333H35V34.3333H55.7447Z" fill="url(#paint0_linear_64_852)"/>
<path d="M50.6667 14.5584V8.1081C50.6667 6.74299 49.3293 5.77905 48.0342 6.21074L41.1302 8.51209C39.5101 9.05211 38.038 9.96191 36.8305 11.1694L32 15.9999V18.6666H42.3421C42.5571 18.6666 42.7706 18.6319 42.9746 18.564L49.2991 16.4558C50.1158 16.1835 50.6667 15.4193 50.6667 14.5584Z" fill="url(#paint1_linear_64_852)"/>
<path d="M13.3333 14.5584V8.1081C13.3333 6.74299 14.6707 5.77905 15.9658 6.21074L22.8698 8.51209C24.4899 9.05211 25.962 9.96191 27.1695 11.1694L32 15.9999V18.6666H21.6579C21.4429 18.6666 21.2294 18.6319 21.0254 18.564L14.7009 16.4558C13.8842 16.1835 13.3333 15.4193 13.3333 14.5584Z" fill="url(#paint2_linear_64_852)"/>
<defs>
<linearGradient id="paint0_linear_64_852" x1="8" y1="21.3333" x2="61.0751" y2="33.0914" gradientUnits="userSpaceOnUse">
<stop stop-color="#009ECE"/>
<stop offset="1" stop-color="#0267A0"/>
</linearGradient>
<linearGradient id="paint1_linear_64_852" x1="50.6667" y1="5.33325" x2="30.2071" y2="14.786" gradientUnits="userSpaceOnUse">
<stop stop-color="#D52222"/>
<stop offset="1" stop-color="#A90101"/>
</linearGradient>
<linearGradient id="paint2_linear_64_852" x1="13.3333" y1="5.33325" x2="33.7929" y2="14.786" gradientUnits="userSpaceOnUse">
<stop stop-color="#D52222"/>
<stop offset="1" stop-color="#A90101"/>
</linearGradient>
</defs>
</svg>
