<svg width="328" height="176" viewBox="0 0 328 176" fill="none" xmlns="http://www.w3.org/2000/svg">
<g clip-path="url(#clip0_387_1021)">
<path fill-rule="evenodd" clip-rule="evenodd" d="M328 8C328 3.58172 324.418 0 320 0H8C3.58172 0 0 3.58173 0 8.00001V62.4C0 66.8183 3.8205 70.2543 7.61516 72.5174C12.609 75.4958 16 81.3123 16 88C16 94.6877 12.609 100.504 7.61516 103.483C3.8205 105.746 0 109.182 0 113.6V168C0 172.418 3.58171 176 7.99999 176H320C324.418 176 328 172.418 328 168V113.6C328 109.182 324.179 105.746 320.385 103.483C315.391 100.504 312 94.6877 312 88C312 81.3123 315.391 75.4958 320.385 72.5174C324.179 70.2543 328 66.8183 328 62.4V8Z" fill="white"/>
<rect y="168" width="105" height="8" fill="#009ECE"/>
<rect x="328" y="8" width="223" height="8" transform="rotate(-180 328 8)" fill="#009ECE"/>
<rect x="105" y="168" width="223" height="8" fill="#D52222"/>
<rect x="105" y="8" width="105" height="8" transform="rotate(-180 105 8)" fill="#D52222"/>
<path d="M50 104.484L45.548 108.502L50 108.502L50 109.776L40.242 109.776L40.242 108.502L44.764 108.502L40.242 104.47L40.242 102.86L45.128 107.284L50 102.818L50 104.484ZM42.328 94.5907L50 94.5907L50 95.8647L48.866 95.8647C49.258 96.1073 49.566 96.448 49.79 96.8867C50.0047 97.316 50.112 97.792 50.112 98.3147C50.112 98.912 49.9907 99.4487 49.748 99.9247C49.496 100.401 49.1227 100.779 48.628 101.059C48.1333 101.329 47.5313 101.465 46.822 101.465L42.328 101.465L42.328 100.205L46.654 100.205C47.41 100.205 47.9933 100.013 48.404 99.6307C48.8053 99.248 49.006 98.7253 49.006 98.0627C49.006 97.3813 48.796 96.8447 48.376 96.4527C47.956 96.0607 47.3447 95.8647 46.542 95.8647L42.328 95.8647L42.328 94.5907ZM43.742 91.1656C43.3033 90.9136 42.9393 90.5402 42.65 90.0456C42.3513 89.5416 42.202 88.9582 42.202 88.2956C42.202 87.6142 42.3653 86.9982 42.692 86.4476C43.0187 85.8876 43.4807 85.4489 44.078 85.1316C44.666 84.8142 45.352 84.6556 46.136 84.6556C46.9107 84.6556 47.6013 84.8142 48.208 85.1316C48.8147 85.4489 49.286 85.8876 49.622 86.4476C49.958 86.9982 50.126 87.6142 50.126 88.2956C50.126 88.9489 49.9813 89.5276 49.692 90.0316C49.3933 90.5262 49.0247 90.9042 48.586 91.1656L53.64 91.1656L53.64 92.4396L42.328 92.4396L42.328 91.1656L43.742 91.1656ZM46.136 85.9576C45.5573 85.9576 45.0533 86.0742 44.624 86.3076C44.1947 86.5409 43.868 86.8582 43.644 87.2596C43.42 87.6516 43.308 88.0856 43.308 88.5616C43.308 89.0282 43.4247 89.4622 43.658 89.8636C43.882 90.2556 44.2133 90.5729 44.652 90.8156C45.0813 91.0489 45.5807 91.1656 46.15 91.1656C46.7287 91.1656 47.2373 91.0489 47.676 90.8156C48.1053 90.5729 48.4367 90.2556 48.67 89.8636C48.894 89.4622 49.006 89.0282 49.006 88.5616C49.006 88.0856 48.894 87.6516 48.67 87.2596C48.4367 86.8582 48.1053 86.5409 47.676 86.3076C47.2373 86.0742 46.724 85.9576 46.136 85.9576ZM50.126 79.6326C50.126 80.3513 49.9627 81.0046 49.636 81.5926C49.3093 82.1713 48.8473 82.6286 48.25 82.9646C47.6433 83.2913 46.9433 83.4546 46.15 83.4546C45.366 83.4546 44.6753 83.2866 44.078 82.9506C43.4713 82.6053 43.0093 82.1386 42.692 81.5506C42.3653 80.9626 42.202 80.3046 42.202 79.5766C42.202 78.8486 42.3653 78.1906 42.692 77.6026C43.0093 77.0146 43.4667 76.5526 44.064 76.2166C44.6613 75.8713 45.3567 75.6986 46.15 75.6986C46.9433 75.6986 47.6433 75.876 48.25 76.2306C48.8473 76.576 49.3093 77.0473 49.636 77.6446C49.9627 78.242 50.126 78.9046 50.126 79.6326ZM49.006 79.6326C49.006 79.1753 48.8987 78.746 48.684 78.3446C48.4693 77.9433 48.1473 77.6213 47.718 77.3786C47.2887 77.1266 46.766 77.0006 46.15 77.0006C45.534 77.0006 45.0113 77.122 44.582 77.3646C44.1527 77.6073 43.8353 77.9246 43.63 78.3166C43.4153 78.7086 43.308 79.1333 43.308 79.5906C43.308 80.0573 43.4153 80.4866 43.63 80.8786C43.8353 81.2613 44.1527 81.5693 44.582 81.8026C45.0113 82.036 45.534 82.1526 46.15 82.1526C46.7753 82.1526 47.3027 82.0406 47.732 81.8166C48.1613 81.5833 48.4833 81.2753 48.698 80.8926C48.9033 80.51 49.006 80.09 49.006 79.6326ZM42.188 70.2856C42.188 69.3522 42.4727 68.5962 43.042 68.0176C43.602 67.4389 44.414 67.1496 45.478 67.1496L50 67.1496L50 68.4096L45.66 68.4096C44.8947 68.4096 44.3113 68.6009 43.91 68.9836C43.4993 69.3662 43.294 69.8889 43.294 70.5516C43.294 71.2236 43.504 71.7602 43.924 72.1616C44.344 72.5536 44.9553 72.7496 45.758 72.7496L50 72.7496L50 74.0236L42.328 74.0236L42.328 72.7496L43.42 72.7496C43.028 72.4976 42.7247 72.1569 42.51 71.7276C42.2953 71.2889 42.188 70.8082 42.188 70.2856Z" fill="#D0DBDF"/>
<path d="M66.5859 122.203L66.5859 117.672L72.5078 117.672C72.7474 118.406 72.9141 119.099 73.0078 119.75C73.1068 120.396 73.1562 121.057 73.1562 121.734C73.1562 123.458 72.651 124.776 71.6406 125.687C70.625 126.594 69.1693 127.047 67.2734 127.047C65.4297 127.047 63.9922 126.521 62.9609 125.469C61.9297 124.411 61.4141 122.948 61.4141 121.078C61.4141 119.906 61.6484 118.776 62.1172 117.687L64.0547 118.492C63.638 119.326 63.4297 120.193 63.4297 121.094C63.4297 122.141 63.7812 122.979 64.4844 123.609C65.1875 124.24 66.1328 124.555 67.3203 124.555C68.5599 124.555 69.5078 124.302 70.1641 123.797C70.8151 123.286 71.1406 122.547 71.1406 121.578C71.1406 121.073 71.0885 120.56 70.9844 120.039L68.6016 120.039L68.6016 122.203L66.5859 122.203ZM67.2734 104.578C69.1641 104.578 70.6172 105.047 71.6328 105.984C72.6484 106.922 73.1562 108.266 73.1562 110.016C73.1562 111.766 72.6484 113.109 71.6328 114.047C70.6172 114.984 69.1589 115.453 67.2578 115.453C65.3568 115.453 63.9062 114.984 62.9062 114.047C61.901 113.104 61.3984 111.755 61.3984 110C61.3984 108.245 61.9036 106.904 62.9141 105.977C63.9245 105.044 65.3776 104.578 67.2734 104.578ZM67.2734 112.914C68.5495 112.914 69.5104 112.672 70.1562 112.187C70.8021 111.703 71.125 110.979 71.125 110.016C71.125 108.083 69.8411 107.117 67.2734 107.117C64.7005 107.117 63.4141 108.078 63.4141 110C63.4141 110.964 63.7396 111.69 64.3906 112.18C65.0365 112.669 65.9974 112.914 67.2734 112.914Z" fill="#009ECE"/>
<path d="M69.8281 95.4687C70.8594 95.4687 71.6719 95.8411 72.2656 96.5859C72.8594 97.3255 73.1562 98.3568 73.1562 99.6797C73.1562 100.898 72.9271 101.977 72.4687 102.914L70.2187 102.914C70.5625 102.143 70.8047 101.492 70.9453 100.961C71.0859 100.424 71.1562 99.9349 71.1562 99.4922C71.1562 98.9609 71.0547 98.5547 70.8516 98.2734C70.6484 97.987 70.3464 97.8437 69.9453 97.8437C69.7214 97.8437 69.5234 97.9062 69.3516 98.0312C69.1745 98.1562 69.0052 98.3411 68.8437 98.5859C68.6823 98.8255 68.4245 99.3177 68.0703 100.062C67.7422 100.76 67.4271 101.284 67.125 101.633C66.8229 101.982 66.4714 102.26 66.0703 102.469C65.6693 102.677 65.2005 102.781 64.6641 102.781C63.6536 102.781 62.8594 102.44 62.2812 101.758C61.7031 101.07 61.4141 100.122 61.4141 98.9141C61.4141 98.3203 61.4844 97.7552 61.625 97.2187C61.7656 96.6771 61.9635 96.112 62.2187 95.5234L64.1016 96.3047C63.8516 96.9141 63.6771 97.4193 63.5781 97.8203C63.4792 98.2161 63.4297 98.6068 63.4297 98.9922C63.4297 99.4505 63.5365 99.8021 63.75 100.047C63.9635 100.292 64.2422 100.414 64.5859 100.414C64.7995 100.414 64.987 100.365 65.1484 100.266C65.3047 100.167 65.4583 100.01 65.6094 99.7969C65.7552 99.5781 66.0208 99.0651 66.4062 98.2578C66.9167 97.1901 67.4297 96.4583 67.9453 96.0625C68.4557 95.6667 69.0833 95.4687 69.8281 95.4687ZM73 84.0391L73 86.4531L68.0703 86.4531L68.0703 90.9766L73 90.9766L73 93.3984L61.5781 93.3984L61.5781 90.9766L66.0547 90.9766L66.0547 86.4531L61.5781 86.4531L61.5781 84.0391L73 84.0391ZM67.2734 70.7812C69.1641 70.7812 70.6172 71.25 71.6328 72.1875C72.6484 73.125 73.1562 74.4687 73.1562 76.2187C73.1562 77.9687 72.6484 79.3125 71.6328 80.25C70.6172 81.1875 69.1589 81.6562 67.2578 81.6562C65.3568 81.6562 63.9062 81.1875 62.9062 80.25C61.901 79.3073 61.3984 77.9583 61.3984 76.2031C61.3984 74.4479 61.9036 73.1068 62.9141 72.1797C63.9245 71.2474 65.3776 70.7812 67.2734 70.7812ZM67.2734 79.1172C68.5495 79.1172 69.5104 78.875 70.1562 78.3906C70.8021 77.9062 71.125 77.1823 71.125 76.2187C71.125 74.2865 69.8411 73.3203 67.2734 73.3203C64.7005 73.3203 63.4141 74.2812 63.4141 76.2031C63.4141 77.1667 63.7396 77.8932 64.3906 78.3828C65.0365 78.8724 65.9974 79.1172 67.2734 79.1172ZM63.4297 63.5625C63.4297 64.474 63.7734 65.1797 64.4609 65.6797C65.1432 66.1797 66.0964 66.4297 67.3203 66.4297C69.8672 66.4297 71.1406 65.474 71.1406 63.5625C71.1406 62.7604 70.9401 61.7891 70.5391 60.6484L72.5703 60.6484C72.9609 61.5859 73.1562 62.6328 73.1562 63.7891C73.1562 65.4505 72.6536 66.7214 71.6484 67.6016C70.638 68.4818 69.1901 68.9219 67.3047 68.9219C66.1172 68.9219 65.0781 68.7057 64.1875 68.2734C63.2917 67.8411 62.6068 67.2214 62.1328 66.4141C61.6536 65.6016 61.4141 64.651 61.4141 63.5625C61.4141 62.4531 61.6823 61.3385 62.2187 60.2187L64.1875 61C63.9844 61.4271 63.8073 61.8568 63.6562 62.2891C63.5052 62.7214 63.4297 63.1458 63.4297 63.5625ZM73 49.0234L73 51.7734L68.1875 54.7656L68.9219 55.7891L73 55.7891L73 58.2109L61.5781 58.2109L61.5781 55.7891L66.8047 55.7891L65.4609 54.8359L61.5781 51.7422L61.5781 49.0547L66.6328 53.0391L73 49.0234Z" fill="#D52222"/>
</g>
<defs>
<clipPath id="clip0_387_1021">
<rect width="328" height="176" rx="8" fill="white"/>
</clipPath>
</defs>
</svg>
