<svg viewBox="0 0 24 24" fill="none" xmlns="http://www.w3.org/2000/svg">
<rect fill="#E5E5E5"/>
<path fill-rule="evenodd" clip-rule="evenodd" d="M5 10.0001L2.8153 7.8154C2.38499 7.38509 2.43557 6.67342 2.92241 6.3083L5.43399 4.42461C5.77317 4.17022 6.23591 4.15738 6.58869 4.39256L9 6.0001L15 6.00012L17.4113 4.39256C17.7641 4.15738 18.2268 4.17022 18.566 4.42461L21.0776 6.3083C21.5644 6.67342 21.615 7.38509 21.1847 7.8154L19 10.0001L19 11.0001V12.0001V15.0001C19 16.8857 19 17.8285 18.4142 18.4143C17.8284 19.0001 16.8856 19.0001 15 19.0001H9C7.11438 19.0001 6.17157 19.0001 5.58579 18.4143C5 17.8285 5 16.8857 5 15.0001V12.0001V11.0001L5 10.0001ZM7.41421 10.0001L9.41421 8.00012H14.5858L16.5858 10.0001H7.41421Z" fill="none"/>
</svg>
