<svg viewBox="0 0 24 24" fill="none" xmlns="http://www.w3.org/2000/svg">
<path fill-rule="evenodd" clip-rule="evenodd" d="M2 8.89868C2 7.86318 2 7.34543 2.1903 6.87988C2.3806 6.41432 2.74189 6.04822 3.46447 5.31601L4.28553 4.48399C5.00811 3.75178 5.3694 3.38568 5.82883 3.19284C6.28825 3 6.79919 3 7.82107 3H16.1789C17.2008 3 17.7117 3 18.1712 3.19284C18.6306 3.38568 18.9919 3.75178 19.7145 4.48399L20.5355 5.31601C21.2581 6.04822 21.6194 6.41432 21.8097 6.87988C22 7.34543 22 7.86318 22 8.89868V9.33333H2V8.89868ZM15.75 11.8667H22V16.9333C22 19.3218 22 20.516 21.2678 21.258C20.5355 22 19.357 22 17 22H7C4.64298 22 3.46447 22 2.73223 21.258C2 20.516 2 19.3218 2 16.9333V11.8667H8.25V17.2519C8.25 18.1344 8.25 18.5757 8.36127 18.8129C8.60966 19.3423 9.20624 19.5958 9.74686 19.4016C9.98905 19.3146 10.2932 19.0026 10.9016 18.3785C11.1834 18.0895 11.3243 17.9449 11.4741 17.8637C11.8031 17.6852 12.1969 17.6852 12.5259 17.8637C12.6757 17.9449 12.8166 18.0894 13.0983 18.3785C13.7068 19.0026 14.011 19.3146 14.2531 19.4016C14.7938 19.5958 15.3903 19.3423 15.6387 18.8129C15.75 18.5757 15.75 18.1344 15.75 17.2519V11.8667Z" fill="none"/>
</svg>
