<svg viewBox="0 0 24 24" fill="none" xmlns="http://www.w3.org/2000/svg">
<path fill-rule="evenodd" clip-rule="evenodd" d="M19 5.63243V5.45033C19 4.24485 17.819 3.39364 16.6754 3.77485C15.2448 4.25171 13.9449 5.05511 12.8786 6.12142L12 6.99998L11.1214 6.12142C10.0551 5.05511 8.75521 4.25171 7.3246 3.77485C6.18099 3.39364 5 4.24485 5 5.45033V5.63243C5 6.44912 5.52259 7.17418 6.29737 7.43243L7.6921 7.89735C7.89603 7.96532 8.10959 7.99998 8.32456 7.99998H12H15.6754C15.8904 7.99998 16.104 7.96532 16.3079 7.89735L17.7026 7.43243C18.4774 7.17418 19 6.44912 19 5.63243ZM11 8.99998H5C4.05719 8.99998 3.58579 8.99998 3.29289 9.29287C3 9.58576 3 10.0572 3 11V12C3 12.9428 3 13.4142 3.29289 13.7071C3.58579 14 4.05719 14 5 14H6H11V8.99998ZM6 16V20C6 20.9428 6 21.4142 6.29289 21.7071C6.58579 22 7.05719 22 8 22H11V16H6ZM13 22H16C16.9428 22 17.4142 22 17.7071 21.7071C18 21.4142 18 20.9428 18 20V16H13V22ZM18 14H19C19.9428 14 20.4142 14 20.7071 13.7071C21 13.4142 21 12.9428 21 12V11C21 10.0572 21 9.58576 20.7071 9.29287C20.4142 8.99998 19.9428 8.99998 19 8.99998H13V14H18Z" fill="none"/>
</svg>
