<svg viewBox="0 0 24 24" fill="none" xmlns="http://www.w3.org/2000/svg">
<path fill-rule="evenodd" clip-rule="evenodd" d="M9.93934 12.6465L7.6921 11.8975L7.69209 11.8975L7.69209 11.8975C5.33888 11.1131 4.16228 10.7209 4.16228 10.0001C4.16228 9.27934 5.33888 8.88713 7.6921 8.10273L16.2053 5.26501C17.8611 4.71308 18.689 4.43711 19.126 4.87413C19.563 5.31114 19.287 6.13904 18.7351 7.79483L15.8974 16.308L15.8974 16.308L15.8974 16.308C15.113 18.6612 14.7208 19.8378 14 19.8378C13.2792 19.8378 12.887 18.6612 12.1026 16.308L11.3536 14.0608L15.7071 9.7072C16.0976 9.31668 16.0976 8.68351 15.7071 8.29299C15.3166 7.90247 14.6834 7.90247 14.2929 8.29299L9.93934 12.6465Z" fill="none"/>
</svg>
