<svg viewBox="0 0 24 24" fill="none" xmlns="http://www.w3.org/2000/svg">
<path fill-rule="evenodd" clip-rule="evenodd" d="M8.21755 5.32016C8.44304 5.29084 8.60207 5.08425 8.57275 4.85873C8.54343 4.63321 8.33687 4.47416 8.11138 4.50348C7.52673 4.57951 6.90901 4.7491 6.28882 4.97624C6.07529 5.05444 5.96559 5.29095 6.04378 5.5045C6.12197 5.71805 6.35845 5.82777 6.57197 5.74957C7.15418 5.53634 7.71071 5.38606 8.21755 5.32016ZM10.099 4.72717C9.89287 4.63114 9.64794 4.72041 9.55192 4.92656C9.4559 5.13271 9.54516 5.37767 9.75128 5.4737C9.96487 5.57321 10.1497 5.71448 10.3036 5.90671C10.4422 6.07987 10.5042 6.2308 10.5245 6.36165C10.5593 6.58639 10.7696 6.74038 10.9944 6.70559C11.2191 6.6708 11.373 6.4604 11.3383 6.23566C11.2922 5.93793 11.158 5.65639 10.9464 5.39198C10.7105 5.09732 10.4234 4.87829 10.099 4.72717ZM4.97434 6.4525C5.17728 6.34992 5.25864 6.10222 5.15606 5.89925C5.05348 5.69629 4.80582 5.61492 4.60288 5.71751C4.05482 5.99456 3.51665 6.29856 3.00769 6.60882C2.81352 6.72719 2.75206 6.98056 2.87041 7.17474C2.98876 7.36893 3.2421 7.4304 3.43626 7.31204C3.9295 7.01136 4.44853 6.71831 4.97434 6.4525ZM10.7292 7.87026C10.8788 7.69902 10.8613 7.43889 10.6901 7.28924C10.5189 7.13958 10.2588 7.15709 10.1091 7.32833C9.85625 7.61772 9.5073 7.91697 9.09062 8.22975C8.90875 8.36626 8.87197 8.62438 9.00847 8.80626C9.14497 8.98815 9.40305 9.02493 9.58491 8.88842C10.0198 8.56198 10.4211 8.2228 10.7292 7.87026ZM1.96042 8.28248C2.14603 8.1511 2.19 7.89411 2.05863 7.70849C1.92727 7.52286 1.67031 7.47888 1.48471 7.61026C1.21986 7.79774 0.973416 7.97975 0.75 8.15149L1.25181 8.80446C1.46626 8.6396 1.70399 8.464 1.96042 8.28248ZM8.37991 9.73076C8.56883 9.60419 8.61938 9.34841 8.49282 9.15947C8.36626 8.97054 8.11052 8.91998 7.9216 9.04655C7.8283 9.10907 7.73402 9.172 7.63923 9.23526C7.33129 9.4408 7.018 9.64991 6.71535 9.86008C6.52858 9.98979 6.4823 10.2464 6.612 10.4332C6.74169 10.62 6.99824 10.6662 7.18502 10.5365C7.48081 10.3311 7.78531 10.1279 8.09191 9.92324L8.09208 9.92312C8.18789 9.85917 8.2839 9.79509 8.37991 9.73076ZM6.06184 11.3841C6.23509 11.2368 6.25615 10.9769 6.10888 10.8036C5.9616 10.6304 5.70177 10.6093 5.52852 10.7566C5.10586 11.1159 4.72888 11.5009 4.47099 11.914C4.35057 12.1069 4.40932 12.3609 4.60221 12.4814C4.79509 12.6018 5.04908 12.543 5.16949 12.3501C5.36327 12.0397 5.66859 11.7184 6.06184 11.3841ZM14.1721 11.749C14.2574 11.2985 14.8175 10.8725 15.1938 11.3328C15.5986 11.828 16.0233 12.461 16.3301 12.9184C16.3655 12.9711 16.3993 13.0216 16.4314 13.0692L16.7849 13.5944C16.818 13.6435 16.897 13.6176 16.8967 13.5577C16.894 12.9041 17.7502 12.6265 18.1644 13.1466L18.1746 13.1594C18.2123 13.2067 18.2908 13.1765 18.2889 13.1155C18.2804 12.8394 18.3986 12.6085 18.6192 12.4704C18.9752 12.2476 19.3572 12.3416 19.5854 12.7082C19.6576 12.8241 19.7343 12.9227 19.7558 12.9272C19.7773 12.9318 19.7993 12.8592 19.8046 12.7659C19.821 12.4754 19.9124 12.3152 20.1449 12.1694C20.3807 12.0216 20.5679 12.0287 20.843 12.1301C21.1181 12.2314 21.8899 13.6462 21.8899 13.6462C22.7493 15.0632 22.7684 15.0987 22.8883 15.5159C23.0249 15.9908 23.1609 16.6313 23.244 17.1913C23.2774 17.4167 23.17 17.6444 22.9714 17.7688L21.6685 18.5858L20.3824 19.3922C20.1699 19.5254 19.9046 19.5359 19.6903 19.4195C18.6122 18.8342 18.063 18.6383 16.5538 18.3009C15.8641 18.1467 15.2582 17.9921 15.2074 17.9574C15.1565 17.9226 15.0605 17.7949 14.9939 17.6736C14.846 17.4041 14.8607 17.1207 15.0359 16.8636C15.2923 16.4872 15.5185 16.4391 16.327 16.5886C16.573 16.634 16.7644 16.3646 16.6345 16.1557L15.4307 14.2197C15.4307 14.2197 14.806 13.2498 14.4341 12.5565C14.2812 12.5546 14.0884 12.5888 13.849 12.6683C13.6332 12.74 13.4001 12.6231 13.3285 12.4072C13.2568 12.1914 13.3737 11.9584 13.5895 11.8867C13.7823 11.8227 13.9781 11.7731 14.1721 11.749ZM12.3306 13.4047C12.5283 13.2923 12.5974 13.0409 12.485 12.8432C12.3726 12.6455 12.1213 12.5763 11.9236 12.6887C11.7008 12.8154 11.4823 12.9429 11.2622 13.0714L11.2622 13.0714C10.9788 13.2368 10.6927 13.4038 10.391 13.5728C10.1926 13.6839 10.1218 13.9348 10.2329 14.1332C10.344 14.3316 10.5949 14.4024 10.7933 14.2913C11.0914 14.1244 11.3977 13.9458 11.6928 13.7737L11.6929 13.7736C11.9145 13.6444 12.1297 13.5189 12.3306 13.4047ZM4.99075 13.3791C4.91748 13.1638 4.68358 13.0487 4.46832 13.122C4.25306 13.1953 4.13795 13.4292 4.21122 13.6445C4.29956 13.9041 4.44572 14.1548 4.64643 14.3976C4.87502 14.6741 5.12209 14.8993 5.38631 15.0761C5.5753 15.2026 5.83101 15.1519 5.95746 14.9628C6.08391 14.7738 6.03322 14.5181 5.84423 14.3916C5.65218 14.2631 5.46347 14.0935 5.28107 13.8729C5.13249 13.6931 5.04158 13.5285 4.99075 13.3791ZM9.16334 15.1005C9.37369 15.0141 9.47419 14.7736 9.38782 14.5632C9.30145 14.3528 9.06091 14.2523 8.85056 14.3387C8.29394 14.5673 7.7645 14.7168 7.27369 14.7477C7.04675 14.762 6.87436 14.9575 6.88865 15.1845C6.90294 15.4115 7.09849 15.5839 7.32543 15.5696C7.93881 15.531 8.56078 15.348 9.16334 15.1005Z" fill="none"/>
</svg>
