<svg viewBox="0 0 24 24" fill="none" xmlns="http://www.w3.org/2000/svg">
<path fill-rule="evenodd" clip-rule="evenodd" d="M0.743082 14.5624C0.971443 15.1137 1.46565 15.6079 2.45406 16.5963L2.98439 17.1266C3.27728 17.4195 3.75216 17.4195 4.04505 17.1266L4.22183 16.9498C5.00288 16.1688 6.26921 16.1688 7.05025 16.9498C7.8313 17.7309 7.8313 18.9972 7.05025 19.7783L6.87348 19.955C6.58058 20.2479 6.58058 20.7228 6.87348 21.0157L7.40381 21.546C8.39222 22.5344 8.88642 23.0287 9.43774 23.257C10.1728 23.5615 10.9988 23.5615 11.7338 23.257C12.2852 23.0287 12.7794 22.5344 13.7678 21.546L21.5459 13.7679C22.5344 12.7794 23.0286 12.2852 23.2569 11.7339C23.5614 10.9988 23.5614 10.1729 23.2569 9.43783C23.0286 8.88652 22.5344 8.39231 21.5459 7.4039L21.0156 6.87357C20.7227 6.58068 20.2478 6.58068 19.955 6.87357L19.7782 7.05035C18.9971 7.83139 17.7308 7.83139 16.9497 7.05035C16.1687 6.2693 16.1687 5.00297 16.9497 4.22192L17.1265 4.04514C17.4194 3.75225 17.4194 3.27738 17.1265 2.98448L16.5962 2.45415C15.6078 1.46574 15.1136 0.971535 14.5623 0.743173C13.8272 0.438691 13.0012 0.438691 12.2662 0.743173C11.7149 0.971535 11.2206 1.46574 10.2322 2.45415L2.45406 10.2323C1.46565 11.2207 0.971443 11.7149 0.743082 12.2663C0.4386 13.0013 0.4386 13.8273 0.743082 14.5624ZM10.7592 11.3862L10.7592 11.3862C10.8666 11.6287 10.9202 11.75 10.9164 11.8727C10.9154 11.9071 10.911 11.9412 10.9033 11.9746C10.8759 12.0934 10.7931 12.1931 10.6276 12.3926C10.3473 12.7303 10.2072 12.8992 10.2514 13.0378C10.2606 13.0665 10.2744 13.0936 10.2924 13.1181C10.3792 13.2361 10.6 13.2298 11.0416 13.2171L11.1642 13.2136H11.1642C11.3707 13.2077 11.4739 13.2047 11.5672 13.2365C11.6232 13.2557 11.6759 13.2837 11.7234 13.3196C11.8026 13.3795 11.8597 13.4677 11.9741 13.6443L11.9741 13.6443L12.015 13.7074C12.22 14.024 12.3226 14.1823 12.4215 14.2116C12.5103 14.2379 12.6048 14.2172 12.6716 14.1567C12.7459 14.0894 12.7613 13.9052 12.7921 13.5368C12.8124 13.2941 12.8226 13.1728 12.8739 13.0781C12.9207 12.9915 12.9914 12.9208 13.078 12.8739C13.1727 12.8227 13.2941 12.8125 13.5368 12.7922C13.9051 12.7614 14.0893 12.746 14.1566 12.6717C14.2171 12.6049 14.2378 12.5104 14.2115 12.4216C14.1822 12.3227 14.0239 12.2201 13.7073 12.015L13.6442 11.9742C13.4677 11.8598 13.3794 11.8026 13.3195 11.7235C13.2836 11.676 13.2556 11.6233 13.2365 11.5673C13.2046 11.474 13.2076 11.3708 13.2135 11.1643L13.217 11.0417C13.2297 10.6001 13.236 10.3793 13.118 10.2925C13.0935 10.2745 13.0664 10.2607 13.0377 10.2515C12.8991 10.2073 12.7302 10.3474 12.3925 10.6277C12.1931 10.7932 12.0933 10.876 11.9745 10.9034C11.9411 10.9111 11.907 10.9155 11.8726 10.9165C11.7499 10.9203 11.6286 10.8666 11.3861 10.7593C10.9596 10.5707 10.7464 10.4763 10.6285 10.5516C10.5975 10.5714 10.5713 10.5976 10.5515 10.6286C10.4762 10.7465 10.5706 10.9597 10.7592 11.3862Z" fill="none"/>
</svg>
