<svg viewBox="0 0 24 24" fill="none" xmlns="http://www.w3.org/2000/svg">
<path fill-rule="evenodd" clip-rule="evenodd" d="M12 2C12.4892 2 12.982 2.0399 13.4059 2.12123C13.6179 2.16189 13.8254 2.21529 14.0134 2.28562C14.1841 2.34951 14.417 2.45558 14.614 2.63942C15.0179 3.01618 15.0398 3.64897 14.663 4.05278C14.3075 4.43384 13.724 4.47484 13.32 4.16168L13.3125 4.1588C13.2592 4.13884 13.1665 4.11176 13.0291 4.08542C12.7545 4.03274 12.3913 4 12 4C11.6087 4 11.2455 4.03274 10.9709 4.08542C10.8335 4.11176 10.7408 4.13884 10.6875 4.15881L10.68 4.16168C10.276 4.47484 9.6925 4.43384 9.33698 4.05278C8.96021 3.64897 8.98214 3.01618 9.38595 2.63942C9.58299 2.45558 9.81588 2.34951 9.98663 2.28562C10.1746 2.21529 10.3821 2.16189 10.5941 2.12123C11.018 2.0399 11.5108 2 12 2ZM3.00006 6H21.0001V9C19.8955 9 19.0001 9.89543 19.0001 11V15C19.0001 17.8284 19.0001 19.2426 18.1214 20.1213C17.2427 21 15.8285 21 13.0001 21H11.0001C8.17163 21 6.75742 21 5.87874 20.1213C5.00006 19.2426 5.00006 17.8284 5.00006 15V11C5.00006 9.89543 4.10463 9 3.00006 9V6ZM9.50006 10C10.0523 10 10.5001 10.4477 10.5001 11V16C10.5001 16.5523 10.0523 17 9.50006 17C8.94778 17 8.50006 16.5523 8.50006 16V11C8.50006 10.4477 8.94778 10 9.50006 10ZM14.5001 10C15.0523 10 15.5001 10.4477 15.5001 11V16C15.5001 16.5523 15.0523 17 14.5001 17C13.9478 17 13.5001 16.5523 13.5001 16V11C13.5001 10.4477 13.9478 10 14.5001 10Z" fill="none"/>
</svg>
